<svg width="26" height="24" viewBox="0 0 26 24" fill="none" xmlns="http://www.w3.org/2000/svg">
<path d="M2.06719 4.07974V8.14849L1.02813 9.17661L0 10.2157V11.6485V13.0813L1.02813 14.1204L2.06719 15.1485L2.07813 19.2063L2.08906 23.2641H5.76406H9.43906L9.45 21.2625L9.46094 19.261H7.7875H6.10313V16.3735V13.486L5.18438 12.5672L4.26563 11.6485L5.18438 10.7297L6.10313 9.81099V6.92349V4.03599H7.7875H9.47188L9.46094 2.03442L9.45 0.0328612L5.76406 0.0219239L2.06719 0.0109863V4.07974Z" fill="#2B3B52"/>
<path d="M16.3844 2.02344V4.03594H18.0687H19.7531V6.94531V9.85469L20.6609 10.7406L21.5687 11.6266L20.6609 12.5344L19.7531 13.4422V16.3516V19.2609H18.0687H16.3844V21.2734V23.2859H20.0594H23.7344V19.2172V15.1484L24.7625 14.1094L25.7906 13.0813V11.6484V10.2156L24.7625 9.17656L23.7234 8.14844V4.07969V0H20.0484H16.3734V2.02344H16.3844Z" fill="#2B3B52"/>
</svg>
