<svg width="33" height="20" viewBox="0 0 33 20" fill="none" xmlns="http://www.w3.org/2000/svg">
<path d="M9.68474 0.70534C8.89079 -0.221497 7.60406 -0.221497 6.81011 0.70534L0.595457 7.96023C-0.198486 8.88706 -0.198486 10.3892 0.595457 11.316L6.81011 18.5869C7.20709 19.0503 7.72726 19.29 8.24743 19.29C8.7676 19.29 9.28776 19.0663 9.68474 18.5869C10.4787 17.66 10.4787 16.1579 9.68474 15.2311L4.90739 9.63812L9.68474 4.06113C10.4787 3.13429 10.4787 1.63218 9.68474 0.70534ZM31.6961 7.96023L25.4815 0.70534C24.6875 -0.221497 23.4008 -0.221497 22.6068 0.70534C21.8129 1.63218 21.8129 3.13429 22.6068 4.06113L27.3842 9.63812L22.6068 15.2151C21.8129 16.142 21.8129 17.6441 22.6068 18.5709C23.0038 19.0343 23.524 19.274 24.0442 19.274C24.5643 19.274 25.0845 19.0503 25.4815 18.5709L31.6961 11.316C32.5038 10.3892 32.5038 8.88706 31.6961 7.96023ZM19.2394 0.162022C18.1854 -0.317376 17.0082 0.305841 16.6112 1.52032L11.8202 16.0461C11.4232 17.2765 11.9434 18.6508 12.9837 19.1142C13.2301 19.2261 13.4765 19.274 13.7092 19.274C14.5305 19.274 15.2971 18.6987 15.6119 17.7559L20.403 3.23017C20.8136 2.01569 20.2935 0.64142 19.2394 0.162022Z" fill="#F9F9F9"/>
</svg>
