<svg width="58" height="45" viewBox="0 0 58 45" fill="none" xmlns="http://www.w3.org/2000/svg">
<path d="M10.4829 3.5H7.46815L9.88522 5.30176L28.4023 19.105L29 19.5505L29.5977 19.105L48.1148 5.30176L50.5318 3.5H47.5171H10.4829ZM7.28996 9.26612L5.69231 8.07517V10.0679V40.5V41.5H6.69231H51.3077H52.3077V40.5V10.0679V8.07517L50.71 9.26612L29 25.4495L7.28996 9.26612ZM1 4.5C1 2.58478 2.58353 1 4.46154 1H53.5385C55.4165 1 57 2.58478 57 4.5V40.5C57 42.4152 55.4165 44 53.5385 44H4.46154C2.58353 44 1 42.4152 1 40.5V4.5Z" fill="#2B3B52" stroke="black" stroke-width="2"/>
</svg>
