<svg viewBox="0 0 24 24" xml:space="preserve" xmlns="http://www.w3.org/2000/svg"><circle cx="12" cy="12" fill="#000000" r="11" class="fill-434a54"></circle><path d="M14.313 18.941c0-.283.01-1.207.01-2.354 0-.8-.275-1.323-.582-1.59 1.91-.212 3.917-.937 3.917-4.233 0-.936-.333-1.702-.883-2.303.09-.216.383-1.088-.084-2.27 0 0-.72-.23-2.357.88a8.242 8.242 0 0 0-2.15-.29 8.216 8.216 0 0 0-2.147.29c-1.64-1.11-2.36-.88-2.36-.88-.466 1.182-.172 2.054-.083 2.27a3.32 3.32 0 0 0-.884 2.303c0 3.288 2.003 4.024 3.909 4.24-.245.215-.468.593-.545 1.148-.49.22-1.731.598-2.496-.713 0 0-.454-.824-1.316-.885 0 0-.837-.01-.058.522 0 0 .562.264.952 1.255 0 0 .504 1.532 2.891 1.013.004.717.012 1.392.012 1.597a.468.468 0 0 1-.052.215 7.967 7.967 0 0 0 4.404.073.45.45 0 0 1-.098-.288z" fill="#FFFFFF" class="fill-ffffff"></path><path d="M4.222 19.778A10.966 10.966 0 0 0 12 23c6.075 0 11-4.925 11-11 0-3.038-1.231-5.788-3.222-7.778L4.222 19.778z" fill="#231F20" opacity=".1" class="fill-231f20"></path></svg>