<svg width="52" height="53" viewBox="0 0 52 53" fill="none" xmlns="http://www.w3.org/2000/svg">
<path d="M21.24 38.6036C20.5065 39.4284 19.9054 40.4175 19.4583 41.4387C18.376 41.5775 17.2799 41.6176 16.5035 41.6176C15.5594 41.6176 15.1629 41.5321 14.8972 41.3945C14.6298 41.2561 14.3668 41.0006 13.8507 40.2998L13.8491 40.2976C12.7424 38.8035 11.4738 37.6681 9.84908 37.1922L9.76414 37.1674L9.67617 37.1578C9.07434 37.0923 8.34278 37.2779 7.94145 37.8874C7.72677 38.2134 7.64624 38.6201 7.75125 39.0286C7.85115 39.4172 8.09444 39.7193 8.36512 39.9394L8.38665 39.9569L8.40911 39.9731C9.24778 40.5811 9.72083 41.3919 10.0938 42.3271C10.243 42.7013 10.3676 43.0718 10.4983 43.4601C10.535 43.5691 10.5721 43.6796 10.6104 43.7919C10.778 44.2833 10.9673 44.8092 11.2182 45.291L11.2184 45.2913C12.1948 47.1642 14.1687 48.0922 16.2327 48.0922H16.2353H16.2379H16.2406H16.2433H16.2461H16.2488H16.2516H16.2544H16.2573H16.2602H16.2631H16.2661H16.269H16.272H16.2751H16.2781H16.2812H16.2843H16.2875H16.2907H16.2939H16.2971H16.3004H16.3036H16.307H16.3103H16.3137H16.3171H16.3205H16.324H16.3275H16.331H16.3345H16.3381H16.3417H16.3453H16.3489H16.3526H16.3563H16.36H16.3638H16.3676H16.3714H16.3752H16.3791H16.383H16.3869H16.3908H16.3948H16.3988H16.4028H16.4068H16.4109H16.415H16.4191H16.4233H16.4274H16.4316H16.4358H16.4401H16.4443H16.4486H16.453H16.4573H16.4617H16.4661H16.4705H16.4749H16.4794H16.4839H16.4884H16.4929H16.4975H16.5021H16.5067H16.5113H16.516H16.5206H16.5253H16.5301H16.5348H16.5396H16.5444H16.5492H16.554H16.5589H16.5638H16.5687H16.5736H16.5785H16.5835H16.5885H16.5935H16.5986H16.6036H16.6087H16.6138H16.6189H16.6241H16.6292H16.6344H16.6396H16.6449H16.6501H16.6554H16.6607H16.666H16.6713H16.6767H16.6821H16.6875H16.6929H16.6983H16.7038H16.7092H16.7147H16.7202H16.7258H16.7313H16.7369H16.7425H16.7481H16.7537H16.7594H16.7651H16.7708H16.7765H16.7822H16.7879H16.7937H16.7995H16.8053H16.8111H16.8169H16.8228H16.8287H16.8345H16.8405H16.8464H16.8523H16.8583H16.8643H16.8703H16.8763H16.8823H16.8884H16.8944H16.9005H16.9066H16.9127H16.9188H16.925H16.9312H16.9373H16.9435H16.9497H16.956H16.9622H16.9685H16.9748H16.9811H16.9874H16.9937H17H17.0064H17.0128H17.0191H17.0255H17.032H17.0384H17.0448H17.0513H17.0578H17.0643H17.0708H17.0773H17.0838H17.0904H17.0969H17.1035H17.1101H17.1167H17.1233H17.1299H17.1366H17.1432H17.1499H17.1566H17.1633H17.17H17.1767H17.1834H17.1902H17.197H17.2037H17.2105H17.2173H17.2241H17.2309H17.2378H17.2446H17.2515H17.2584H17.2652H17.2721H17.279H17.286H17.2929H17.2998H17.3068H17.3138H17.3207H17.3277H17.3347H17.3417H17.3487H17.3558H17.3628H17.3699H17.3769H17.384H17.3911H17.3982H17.4053H17.4124H17.4195H17.4266H17.4338H17.4409H17.4481H17.4552H17.4624H17.4696H17.4768H17.484H17.4912H17.4984H17.5057H17.5129H17.5201H17.5274H17.5347H17.5419H17.5492H17.5565H17.5638H17.5711H17.5784H17.5858H17.5931H17.6004H17.6078H17.6151H17.6225H17.6298H17.6372H17.6446H17.652H17.6594H17.6668H17.6742H17.6816H17.689H17.6964H17.7039H17.7113H17.7187H17.7262H17.7337H17.7411H17.7486H17.7561H17.7635H17.771H17.7785H17.786H17.7935H17.801H17.8085H17.816H17.8236H17.8311H17.8386H17.8461H17.8537H17.8612H17.8688H17.8763H17.8839H17.8914H17.899H17.9066H17.9141H17.9217H17.9293H17.9369H17.9445H17.952H17.9596H17.9672H17.9748H17.9824H17.99H17.9976H18.0052H18.0128H18.0205H18.0281H18.0357H18.0433H18.0509H18.0586H18.0662H18.0738H18.0814H18.0891H18.0967H18.1043H18.112H18.1196H18.1273H18.1349H18.1425H18.1502H18.1578H18.1655H18.1731H18.1807H18.1884H18.196H18.2037H18.2113H18.219H18.2266H18.2342H18.2419H18.2495H18.2572H18.2648H18.2725H18.2801H18.2877H18.2954H18.303H18.3107H18.3183H18.3259H18.3336H18.3412H18.3488H18.3565H18.3641H18.3717H18.3793H18.387H18.3946H18.4022H18.4098H18.4174H18.4251H18.4327H18.4403H18.4479H18.4555H18.4631H18.4707H18.4783H18.4859H18.4934H18.5V51.6089C8.37709 48.3098 1 38.5317 1 26.9149C1 12.5706 12.2261 1 26 1C39.7739 1 51 12.5706 51 26.9149C51 37.6832 44.6569 46.8744 35.6667 50.7885V45.5603C35.6667 44.0087 35.1785 42.268 34.3884 40.7514C33.989 39.9848 33.4958 39.244 32.9203 38.5997C36.2951 37.941 38.9549 36.6724 40.8643 34.8768C43.1996 32.6806 44.3225 29.7793 44.3225 26.5112C44.3225 23.8021 43.2792 21.2207 41.5455 19.0385C41.8214 17.9616 42.0937 16.5241 42.1552 15.1145C42.1911 14.2901 42.1566 13.4401 41.9909 12.6617C41.8266 11.89 41.5169 11.1127 40.9429 10.5193L40.6481 10.2146H40.2242C36.5754 10.2146 34.1504 12.255 33.0896 13.3803C31.2151 12.7866 29.1865 12.4575 27.0725 12.4575C24.9621 12.4575 22.9412 12.7867 21.0723 13.3768C20.0107 12.2526 17.5874 10.2146 13.9425 10.2146H13.5177L13.2228 10.5203C12.6514 11.1126 12.3425 11.8876 12.1782 12.6571C12.0125 13.4333 11.9772 14.2807 12.012 15.1028C12.0715 16.509 12.3407 17.9435 12.6134 19.0202C10.8686 21.2071 9.81817 23.796 9.81817 26.5112C9.81817 29.7818 10.9428 32.685 13.2817 34.8817C15.1945 36.6782 17.8591 37.9466 21.24 38.6036Z" fill="#2B3B52" stroke="black" stroke-width="2"/>
</svg>
