<svg width="25" height="25" viewBox="0 0 25 25" fill="none" xmlns="http://www.w3.org/2000/svg">
<path d="M17.6667 23.1319V21.4907C17.6667 20.6539 17.4017 19.7471 16.9897 18.9713C16.9129 18.8266 16.8286 18.6822 16.7371 18.5403C18.06 18.1852 19.1555 17.6172 19.995 16.8427C21.2363 15.6974 21.8281 14.1817 21.8281 12.5053C21.8281 11.1726 21.3381 9.91884 20.5398 8.85637C20.6556 8.35998 20.7589 7.75483 20.7856 7.15332C20.8041 6.73664 20.7877 6.28603 20.6949 5.85863C20.6035 5.43724 20.4214 4.96391 20.0506 4.58781L19.7569 4.28989H19.3385C17.6203 4.28989 16.4139 5.11895 15.7647 5.71938C14.8986 5.47919 13.974 5.34786 13.0156 5.34786C12.0588 5.34786 11.1376 5.47923 10.2747 5.71795C9.62571 5.11847 8.42006 4.28989 6.70312 4.28989H6.28395L5.99007 4.58878C5.62098 4.96416 5.43942 5.43595 5.34796 5.85614C5.2552 6.28231 5.23835 6.73157 5.25627 7.14712C5.28213 7.74709 5.38413 8.35077 5.49854 8.84636C4.69482 9.91127 4.20104 11.1689 4.20104 12.5053C4.20104 14.183 4.79385 15.6997 6.03693 16.8452C6.87857 17.6208 7.97718 18.189 9.30387 18.5435C9.19782 18.7096 9.10097 18.8802 9.01348 19.0527C8.61491 19.0904 8.22732 19.1026 7.93437 19.1026C7.49158 19.1026 7.40625 19.0593 7.394 19.0531L7.3936 19.0529C7.38085 19.0464 7.3152 19.0132 7.07164 18.6887L7.06997 18.6865C6.50114 17.933 5.80566 17.3022 4.87618 17.0351L4.79261 17.0111L4.70615 17.0018C4.30013 16.9585 3.72579 17.0721 3.38921 17.5735C3.20497 17.848 3.13357 18.1974 3.22485 18.5457C3.31036 18.8721 3.51241 19.1043 3.70137 19.2551L3.72295 19.2723L3.74544 19.2883C4.03506 19.4942 4.21292 19.7737 4.37294 20.1674C4.43857 20.3289 4.49236 20.4857 4.55419 20.6659C4.57247 20.7192 4.59144 20.7745 4.61164 20.8326C4.67094 21.0033 4.74149 21.1997 4.83034 21.3971C2.48136 19.2614 1 16.1592 1 12.6957C1 6.22209 6.16375 1 12.5 1C18.8362 1 24 6.22209 24 12.6957C24 17.2668 21.418 21.21 17.6667 23.1319ZM8.375 23.2133V23.6003C8.06541 23.4792 7.76222 23.345 7.46611 23.1983C7.57863 23.2083 7.69151 23.2133 7.80417 23.2133H7.80542H7.8067H7.80798H7.80929H7.8106H7.81193H7.81328H7.81464H7.81601H7.8174H7.8188H7.82022H7.82165H7.82309H7.82455H7.82602H7.82751H7.82901H7.83052H7.83205H7.83359H7.83514H7.83671H7.83829H7.83988H7.84149H7.84311H7.84475H7.8464H7.84806H7.84974H7.85142H7.85313H7.85484H7.85657H7.85831H7.86006H7.86183H7.86361H7.8654H7.86721H7.86903H7.87086H7.8727H7.87456H7.87642H7.87831H7.8802H7.88211H7.88402H7.88596H7.8879H7.88985H7.89182H7.8938H7.89579H7.8978H7.89982H7.90184H7.90388H7.90594H7.908H7.91008H7.91217H7.91427H7.91638H7.9185H7.92063H7.92278H7.92494H7.92711H7.92929H7.93148H7.93369H7.9359H7.93813H7.94036H7.94261H7.94487H7.94714H7.94943H7.95172H7.95402H7.95634H7.95866H7.961H7.96335H7.96571H7.96808H7.97046H7.97285H7.97525H7.97766H7.98008H7.98251H7.98496H7.98741H7.98987H7.99235H7.99483H7.99732H7.99983H8.00234H8.00487H8.0074H8.00995H8.0125H8.01507H8.01764H8.02022H8.02282H8.02542H8.02803H8.03066H8.03329H8.03593H8.03858H8.04124H8.04391H8.04659H8.04928H8.05198H8.05469H8.0574H8.06013H8.06286H8.06561H8.06836H8.07112H8.07389H8.07667H8.07946H8.08226H8.08506H8.08788H8.0907H8.09353H8.09637H8.09922H8.10208H8.10495H8.10782H8.1107H8.11359H8.11649H8.1194H8.12231H8.12524H8.12817H8.13111H8.13406H8.13701H8.13998H8.14295H8.14593H8.14892H8.15191H8.15491H8.15792H8.16094H8.16397H8.167H8.17004H8.17309H8.17614H8.17921H8.18228H8.18535H8.18844H8.19153H8.19463H8.19773H8.20085H8.20397H8.20709H8.21023H8.21337H8.21652H8.21967H8.22283H8.226H8.22917H8.23235H8.23554H8.23874H8.24193H8.24514H8.24835H8.25157H8.2548H8.25803H8.26127H8.26451H8.26777H8.27102H8.27429H8.27755H8.28083H8.28411H8.28739H8.29069H8.29399H8.29729H8.3006H8.30391H8.30723H8.31056H8.31389H8.31723H8.32057H8.32392H8.32727H8.33063H8.33399H8.33736H8.34074H8.34412H8.3475H8.35089H8.35428H8.35768H8.36109H8.3645H8.36791H8.37133H8.37475H8.375Z" fill="#F9F6EE" stroke="#F9F6EE" stroke-width="2"/>
</svg>
