<svg width="25" height="25" viewBox="0 0 25 25" fill="none" xmlns="http://www.w3.org/2000/svg">
<path d="M7.90227 21.4545H8.90227V20.4545V9.66818V8.66818H7.90227H7.77105C8.59685 8.14401 9.14546 7.22124 9.14546 6.17159C9.14546 4.54203 7.8216 3.21818 6.19205 3.21818C4.56059 3.21818 3.2375 4.54052 3.2375 6.17159C3.2375 7.22106 3.78507 8.14395 4.61118 8.66818H4.55H3.55V9.66818V20.4545V21.4545H4.55H7.90227ZM20.4591 21.4545H21.4591V20.4545V14.5386C21.4591 13.0643 21.311 11.5266 20.567 10.3467C19.7564 9.0612 18.3811 8.4 16.4375 8.4C15.5878 8.4 14.8434 8.59755 14.2205 8.91284V8.66818H13.2205H10.0045H9.00455V9.66818V20.4545V21.4545H10.0045H13.3545H14.3545V20.4545V15.1182C14.3545 14.4336 14.4292 13.9663 14.5822 13.6892C14.6457 13.5741 14.7156 13.5059 14.801 13.4586C14.8922 13.4081 15.061 13.3489 15.367 13.3489C15.6372 13.3489 15.7494 13.41 15.7919 13.4396C15.8365 13.4707 15.8952 13.5314 15.9527 13.6771C16.0905 14.0262 16.1091 14.5391 16.1091 15.2091V20.4545V21.4545H17.1091H20.4591ZM2.27273 1H22.7273C23.4307 1 24 1.56933 24 2.27273V22.7273C24 23.4307 23.4307 24 22.7273 24H2.27273C1.56933 24 1 23.4307 1 22.7273V2.27273C1 1.56933 1.56933 1 2.27273 1Z" fill="#F9F6EE" stroke="#F9F6EE" stroke-width="2"/>
</svg>
