<svg width="49" height="49" viewBox="0 0 49 49" fill="none" xmlns="http://www.w3.org/2000/svg">
<path d="M15.4885 41.0909H16.4885V40.0909V18.9496V17.9496H15.4885H8.918H7.918V18.9496V40.0909V41.0909H8.918H15.4885ZM40.0998 41.0909H41.0998V40.0909V28.4957C41.0998 25.6272 40.8012 22.8562 39.4994 20.7917C38.1309 18.6214 35.7903 17.424 32.2175 17.424C29.9977 17.424 28.2038 18.181 26.9121 19.2262V18.9496V17.9496H25.9121H19.6089H18.6089V18.9496V40.0909V41.0909H19.6089H26.1749H27.1749V40.0909V29.6316C27.1749 28.2717 27.3139 27.1398 27.7406 26.3669C27.9409 26.0039 28.2 25.73 28.5451 25.539C28.8959 25.3448 29.3948 25.2038 30.1194 25.2038C30.8022 25.2038 31.2253 25.3614 31.5019 25.5546C31.7806 25.7494 31.9968 26.0407 32.1602 26.4545C32.5098 27.3399 32.5338 28.5392 32.5338 29.8098V40.0909V41.0909H33.5338H40.0998ZM4.45455 1H44.5455C46.4543 1 48 2.54569 48 4.45455V44.5455C48 46.4543 46.4543 48 44.5455 48H4.45455C2.54569 48 1 46.4543 1 44.5455V4.45455C1 2.54569 2.54569 1 4.45455 1ZM7.3055 12.0963C7.3055 14.7615 9.46523 16.9272 12.1364 16.9272C14.8005 16.9272 16.9651 14.7619 16.9651 12.0963C16.9651 9.43258 14.8001 7.26764 12.1364 7.26764C9.46859 7.26764 7.3055 9.42997 7.3055 12.0963Z" fill="#2B3B52" stroke="black" stroke-width="2"/>
</svg>
