<svg width="191" height="264" viewBox="0 0 191 264" fill="none" xmlns="http://www.w3.org/2000/svg">
<path d="M93.1246 125.685C80.625 118.952 63.4862 123.182 53.5081 132.614C53.2745 132.835 42.6683 144.063 51.6402 145.54C62.4168 147.314 68.9102 134.923 76.1573 130.045C79.4361 127.838 77.6131 137.985 76.9356 141.88C72.3121 168.46 66.7339 196.656 54.8313 221.066C47.5238 236.052 30.1278 263.411 9.06604 261.943C-7.05139 260.82 8.22245 227.6 17.1606 214.136C63.0849 144.957 131.595 93.9083 179.207 25.8656C183.887 19.1773 193.989 4.26574 186.056 2.35125C180.964 1.12253 175.551 3.38667 170.568 4.99856C148.682 12.0772 130.715 22.5541 112.038 36.2991C92.1414 50.9417 26.0233 107.91 71.9543 133.315C88.7178 142.587 115.256 144.185 133.753 141.101" stroke="#2B3B52" stroke-width="3" stroke-linecap="round"/>
</svg>
